<svg xmlns="http://www.w3.org/2000/svg" width="600" height="600" style="overflow:hidden!important" viewBox="0 0 200 200"><path fill="#ecf0f1" d="M0 0h200v200H0z"/><path fill="#f0c7b1" d="M180.8 184.9c-2.3-3.4-38.9-17.8-38.9-17.8l-13.4-5.2-5.6-68.8H76.8L71.3 162l-13.4 5.2S21.4 181.6 19 185c-2.3 3.4-3.3 14.9-3.3 14.9V219h168.5v-19.2c-.1.1-1-11.5-3.4-14.9"/><path fill="#d19271" d="M94.3 163.2s17.4.7 30.2-15c.96-1.2 1.83-2.36 2.64-3.5l-4.2-51.6H76.82l-4.96 62.4c11.08 8.16 22.44 7.7 22.44 7.7"/><path fill="#c27b55" d="M184.5 219c-.1-6.4-.1-12.8-.1-19.2l-.3-.1s.1-.1.2 0c.1 0 .1.1.1.1v-.4l-.1-.5-.1-.9-.2-1.9c-.2-1.3-.4-2.5-.6-3.8s-.5-2.5-.9-3.8c-.4-1.2-.8-2.5-1.5-3.6-.8-.9-1.9-1.5-2.9-2.1s-2.1-1.1-3.2-1.7c-2.1-1.1-4.3-2.1-6.5-3.1-4.4-2-8.7-3.9-13.1-5.7-4.4-1.9-8.8-3.7-13.2-5.5l-13-5.2-1.2-16.9c-.4-5.7-.9-11.5-1.3-17.2l-1.3-17.2-1.5-17.3-.1-.8h-.8c-7.7 0-15.4.1-23.1.1l-23.1.2h-.5v.5L75 110.2l-1.3 17.2c-.8 11.4-1.8 22.8-2.8 34.2-5.6 2.1-11.2 4.2-16.7 6.4q-8.4 3.3-16.8 6.9c-2.8 1.2-5.6 2.4-8.3 3.6-2.8 1.3-5.5 2.5-8.2 4.1-.7.4-1.3.8-2 1.4-.2.1-.4.4-.5.6l-.3.6c-.2.4-.4.7-.5 1.1-.6 1.5-1 3-1.3 4.5-.6 3-1.1 6-1.4 9.1l-.1 19.1v.9h.9l42.1.1H100c14 0 28.1-.1 42.1-.2l42.1-.5h.3zm-84.5-1-42.1-.1-41.2.1-.1-18.1c.3-3 .6-5.9 1.2-8.9.3-1.4.6-2.9 1.1-4.2.1-.3.3-.7.4-.9l.2-.4.3-.3q.75-.6 1.8-1.2c2.5-1.5 5.3-2.8 8-4.1s5.5-2.5 8.2-3.7c5.5-2.4 11.1-4.8 16.7-7.1s11.2-4.5 16.9-6.7l.2-.1v-.2c.9-11.5 1.7-23 2.7-34.4l1.4-17.2 1.5-16.7 22.6.2c7.4.1 14.8.1 22.3.1l1.3 16.4 1.5 17.2c.5 5.7 1 11.5 1.5 17.2l1.6 17.2v.3l.3.1 13.4 5c4.4 1.7 8.9 3.4 13.3 5.2s8.8 3.7 13.2 5.6c2.2 1 4.3 2 6.5 3 1.1.5 2.1 1.1 3.2 1.6 1 .6 2.1 1.2 2.9 2 .7 1.1 1.1 2.3 1.4 3.5s.6 2.5.8 3.7c.2 1.3.4 2.5.6 3.8l.2 1.9.1.9.1.5v.4c0 6.3 0 12.6-.1 18.9l-41.8-.5c-14 .1-28.1 0-42.1 0"/><path fill="#d19271" d="M125.1 142.4s-1.8 23-9.1 32.9c0 0 7.9-25 9.1-32.9m-34.5 16s5 7.9 11.5 10.1c0 0-9.5 2.2-11.5-10.1M73.4 140c6.7 25.6 6.7 25.6 8.5 30.7 0 0 .4-12.6-8.5-30.7"/><path fill="#004550" d="M56.9 166.6s-31.1 11.5-38.3 16.7c0 0-2.3 2.3-3.3 9.3s-1.4 27.3-1.4 27.3h171.5s-.2-16.2-1.3-25.3c-1.2-9.1-1.9-9.3-3.1-10.5s-27.3-14-38.6-17.5c0 0-1.6 22-40.1 23.6s-45.2-17.5-45.4-23.6"/><path fill="#002b31" d="M185.8 220c-.1-6.6-.3-13.2-.7-19.8-.2-3.3-.6-6.6-1.1-9.8-.3-1.6-.5-3.3-1.3-4.9-.2-.4-.5-.8-.8-1.1s-.6-.6-1-.9c-.8-.5-1.5-.9-2.2-1.2-5.8-3.1-11.8-5.9-17.8-8.7-3-1.4-6-2.7-9.1-3.9-3.1-1.3-6.1-2.5-9.3-3.5l-.5-.2-.1.6c-.3 2.1-1 4.2-2.1 6.1l-.4.7-.4.7-.9 1.4-1 1.3c-.4.4-.7.9-1.1 1.2-1.5 1.6-3.2 2.9-5 4.1-.9.6-1.8 1.2-2.8 1.7l-3 1.4c-4.1 1.6-8.3 2.9-12.7 3.6l-3.3.5-3.3.3-3.3.3c-1.1.1-2.2 0-3.3.1H96c-1.1 0-2.2-.1-3.3-.1l-3.3-.2-3.3-.4c-2.2-.2-4.3-.8-6.5-1.2-1.1-.2-2.1-.6-3.2-1l-1.6-.5-1.5-.7c-4.1-1.7-7.9-4.1-10.8-7.4l-1.1-1.2c-.3-.4-.6-.9-1-1.3-.7-.9-1.1-1.9-1.7-2.8-1-2-1.6-4.1-1.8-6.4-3.4 1.2-6.6 2.4-9.9 3.6s-6.5 2.5-9.8 3.8c-3.2 1.3-6.5 2.7-9.6 4.1-3.2 1.5-6.4 2.9-9.3 4.9-1.1 1.3-1.7 2.8-2.2 4.2-.5 1.5-.9 3-1.1 4.6-.5 3.1-.6 6.2-.8 9.3-.4 6.2-.6 12.4-.7 18.7v.4h.4c14.3.1 28.6-.1 42.9-.1l42.9-.1h21.4l21.4.1 42.9.2h.4zm-64.7-.2H99.7l-42.9-.1c-6.8 0-13.6 0-20.5-.1-.1-3.4-.5-6.7-1-10-.6-3.4-1.3-6.8-2.5-10-.6-1.6-1.5-3.2-2.5-4.6s-2-2.8-3.2-4.1c-2.3-2.6-4.9-4.9-7.6-6.9 2.5 2.3 4.9 4.8 7.1 7.4 2.1 2.6 4.1 5.4 5.3 8.6 1.2 3.1 2 6.5 2.7 9.8.4 1.7.7 3.4 1 5s.6 3.2.8 4.9c-7.3 0-14.6-.1-22 0 .1-6.1.3-12.1.6-18.2.2-3.1.3-6.2.8-9.3.2-1.5.6-3 1.1-4.5.5-1.4 1.1-2.9 2-4 2.8-1.9 6-3.4 9.1-4.9 3.2-1.5 6.4-2.8 9.6-4.2s6.4-2.7 9.7-4l9.7-3.8c.1 2.1.8 4.4 1.7 6.4.5 1 1 2 1.7 2.9.3.5.6.9 1 1.4l1.1 1.3c3 3.4 6.8 5.9 10.9 7.6l1.5.7 1.6.5c1.1.3 2.1.8 3.2 1 2.2.5 4.3 1.1 6.6 1.3l3.3.5 3.3.2c1.1.1 2.2.2 3.3.2h5.3c-.2.7-.2 1.3-.1 1.9.1.7.2 1.3.5 2-1.1 0-2.1.1-3.2 0-4.8 0-9.6-.2-14.3-.9-.6-.1-1.2-.1-1.8-.2l-1.8-.4-3.5-.7c-1.2-.3-2.3-.7-3.4-1l-1.6-.5c.5-.5.9-1.2 1.2-1.8.3-.7.6-1.5.7-2.3-.6.6-1 1.3-1.4 2-.3.7-.6 1.3-.7 2.1-.6-.2-1.1-.4-1.6-.6-1.5-.6-2.9-1.2-4.3-1.9.3-.3.6-.5.8-.8.3-.3.5-.6.8-.9.5-.7.9-1.4 1.2-2.2-.7.5-1.3 1.1-1.8 1.7-.2.3-.5.7-.7 1.1-.2.3-.3.7-.4 1.1-2.2-1.1-4.2-2.5-6-4.1.8-.4 1.4-.9 2-1.5s1.2-1.3 1.6-2.1c-.8.4-1.5 1-2.1 1.6s-1.1 1.2-1.5 2c-.5-.5-1.1-.9-1.6-1.4-.5-.4-.8-.9-1.2-1.3s-.8-.9-1.2-1.4c-.7-1-1.4-1.9-2-3-1.2-2.1-2.1-4.3-2.4-6.7.2 2.4 1.1 4.7 2.2 6.9.5 1.1 1.2 2.1 1.9 3.1.3.5.8.9 1.1 1.4.4.4.8 1 1.2 1.4 3.4 3.5 7.6 6.1 12.1 7.9.6.2 1.1.5 1.7.7l1.7.6c1.2.4 2.3.8 3.5 1.1l3.6.8 1.8.4c.6.1 1.2.2 1.8.2 4.8.7 9.6.9 14.5 1 9.6 0 19.4-1.3 28.4-5 4.5-1.9 8.7-4.3 12.3-7.6 1.8-1.7 3.4-3.4 4.7-5.5 1.4-2 2.5-4.1 3.1-6.5-1.6 4.6-4.7 8.4-8.2 11.6-3.6 3.2-7.8 5.5-12.3 7.3-6.6 2.6-13.6 3.9-20.7 4.4.1-.6.1-1.1 0-1.6q-.15-.9-.6-1.8c-.2.7-.2 1.3-.1 1.9.1.5.2 1.1.5 1.6-1.3.1-2.7.1-4 .2.2-.7.2-1.4.2-2.1-.1-.6-.2-1.2-.5-1.9h1.2l3.3-.2c1.1-.1 2.2-.1 3.3-.3l3.3-.5c4.4-.6 8.8-1.9 12.9-3.5 4.1-1.7 8-4.2 11.2-7.4.4-.4.8-.8 1.1-1.3l1.1-1.3.9-1.4.5-.7.4-.8c1-1.8 1.7-3.7 2.1-5.8 2.9.9 5.8 2.1 8.6 3.3l9 3.9c6 2.7 11.9 5.5 17.7 8.6.7.4 1.5.8 2.1 1.2.3.1.6.5.9.7.3.3.4.6.6.9.6 1.4.9 3 1.2 4.6.5 3.2.9 6.5 1.2 9.8.5 6.4.7 12.9.8 19.3l-22.5.1c.3-1.7.5-3.3.8-4.9.3-1.7.6-3.4 1-5 .7-3.3 1.5-6.7 2.7-9.8 1.1-3.1 3.2-5.9 5.3-8.6 2.2-2.6 4.6-5.1 7.1-7.4-2.8 2-5.3 4.4-7.6 6.9-1.2 1.3-2.2 2.6-3.2 4.1-1 1.4-1.8 3-2.4 4.6-1.2 3.2-2 6.6-2.5 10s-.9 6.7-1 10.1l-19.9.1zm16.2-41.2c.3.7.7 1.2 1.2 1.7s1 .9 1.7 1.2c-.3-.7-.7-1.2-1.2-1.7s-1-1-1.7-1.2"/><path fill="#f0c7b1" d="M68.53 80.36s-11.15-9.8-12.94-9.96c-1.54-.14-5.36 8.01-7.05 13.16-.45 1.36-.34 2.88.25 4.2 1.62 3.57 5.21 11.04 8.43 14.78 0 0 2.72.59 3.58.33.86-.25 7.58-5.67 8.27-7.77s.83-11.3-.54-14.74"/><path fill="#e1ac8f" d="M69.49 84.19c.18 1.31.28 2.64.33 3.96s.06 2.65-.01 3.98a27 27 0 0 1-.17 1.99c-.05.34-.1.67-.2 1.02s-.28.7-.46.96c-.72 1.11-1.6 1.95-2.47 2.8-.88.84-1.78 1.63-2.71 2.4-.47.38-.93.75-1.42 1.11-.24.18-.49.35-.74.52l-.4.24c-.16.08-.35.17-.53.19-.67.08-1.23-.01-1.82-.09-.58-.08-1.15-.19-1.73-.32l-.13-.03-.08-.1c-1.45-1.74-2.63-3.68-3.74-5.65-1.1-1.98-2.1-4.03-3.06-6.1l-1.41-3.11c-.5-1.05-.71-2.29-.54-3.46.06-.59.26-1.14.44-1.67.18-.54.37-1.07.56-1.6.4-1.05.79-2.11 1.22-3.15.86-2.07 1.76-4.13 2.94-6.02.3-.47.62-.93 1-1.36.19-.21.4-.42.67-.59.13-.08.3-.16.52-.16.19.01.32.07.47.12 1.06.47 1.87 1.14 2.75 1.76 1.72 1.29 3.37 2.66 5 4.09 1.64 1.41 3.22 2.86 4.81 4.38.49 1.27.72 2.58.91 3.89M58.4 72.51c-.85-.59-1.75-1.26-2.59-1.61-.09-.02-.2-.08-.26-.08-.04 0-.12.02-.2.07-.17.1-.35.25-.51.44-.34.36-.65.8-.94 1.24-1.16 1.8-2.18 3.77-3.11 5.77-.46 1.01-.92 2.02-1.32 3.06-.2.52-.4 1.04-.59 1.57s-.38 1.05-.45 1.6c-.15 1.11.06 2.27.55 3.26.47 1.03.98 2.05 1.49 3.05 1.02 2.02 2.12 3.99 3.26 5.91 1.15 1.91 2.36 3.79 3.76 5.42l-.21-.13c1.09.2 2.3.43 3.29.33.11-.01.18-.06.28-.11l.35-.22.7-.5c.47-.34.93-.71 1.39-1.08.92-.74 1.81-1.52 2.68-2.34.85-.82 1.73-1.66 2.39-2.61.17-.25.29-.46.38-.72.08-.27.14-.58.19-.89.09-.63.17-1.27.21-1.91.1-1.29.14-2.6.15-3.9.01-1.31-.04-2.62-.15-3.92s-.27-2.62-.66-3.84c-3.33-2.62-6.67-5.35-10.08-7.86"/><path fill="#e1ac8f" d="M68.79 88.66S58.04 75.08 56.02 76.21c-2.01 1.12-5.19 7.53-5.18 9.67.02 3.14 3.34 8.38 5.01 9.96s3.68 2.55 6.35 1.94c2.66-.61 6.59-9.12 6.59-9.12"/><path fill="#c27b55" d="M60.61 88.64c-.45-1.26-.95-2.5-1.45-3.74a50 50 0 0 0-1.66-3.64c-.61-1.18-1.22-2.36-1.97-3.45l-.08-.12-.08.12c-.75 1.18-1.45 2.38-2.12 3.62-.33.62-.66 1.25-.96 1.89-.31.64-.57 1.31-.84 1.98l-.04.1.04.12c.46 1.41.96 2.79 1.47 4.18.25.69.54 1.37.83 2.05.3.68.59 1.35.99 2.01l.19.31.25-.23c.34-.31.6-.65.87-1.02q.39-.555.69-1.17c.4-.82.63-1.78.6-2.74v-.06l-.02-.04c-.5-.99-1.03-1.96-1.55-2.94l-.05.03c.42 1.01.83 2.03 1.26 3.03-.04.86-.3 1.68-.68 2.41-.33.62-.77 1.17-1.24 1.65-.26-.49-.5-1.02-.73-1.56l-.81-2.03c-.53-1.32-1.03-2.66-1.52-3.99.45-1.3.94-2.59 1.52-3.82.57-1.23 1.22-2.41 1.96-3.51.67 1.04 1.17 2.23 1.68 3.39l1.54 3.67 1.56 3.67c.52 1.22 1.05 2.45 1.6 3.66l.06-.03c-.41-1.27-.85-2.54-1.31-3.8"/><path fill="#f0c7b1" d="M131.47 80.36s11.15-9.8 12.94-9.96c1.54-.14 5.36 8.01 7.05 13.16.45 1.36.34 2.88-.25 4.2-1.62 3.57-5.21 11.04-8.43 14.78 0 0-2.72.59-3.58.33-.86-.25-7.58-5.67-8.27-7.77s-.83-11.3.54-14.74"/><path fill="#e1ac8f" d="M131.44 80.33c1.58-1.52 3.17-2.97 4.81-4.38 1.62-1.42 3.28-2.8 5-4.09.88-.63 1.69-1.29 2.75-1.76.16-.04.28-.11.47-.12.21 0 .38.08.52.16.28.17.49.37.67.59.38.43.7.89 1 1.36 1.18 1.89 2.07 3.96 2.94 6.02.43 1.04.82 2.09 1.22 3.15.19.53.38 1.06.56 1.6.18.53.37 1.08.44 1.67.17 1.17-.04 2.41-.54 3.46l-1.41 3.11c-.97 2.06-1.96 4.11-3.06 6.1-1.11 1.98-2.29 3.92-3.74 5.65l-.08.1-.13.03c-.58.13-1.15.23-1.73.32-.59.07-1.16.16-1.82.09-.18-.02-.37-.11-.53-.19l-.4-.24c-.25-.17-.5-.34-.74-.52-.48-.36-.95-.73-1.42-1.11-.93-.76-1.83-1.56-2.71-2.4-.87-.86-1.75-1.69-2.47-2.8a3.4 3.4 0 0 1-.46-.96c-.1-.35-.14-.69-.2-1.02-.08-.67-.14-1.33-.17-1.99-.07-1.33-.07-2.65-.01-3.98.06-1.32.15-2.65.33-3.96.17-1.34.4-2.65.91-3.89m.06.06c-.4 1.21-.56 2.54-.66 3.84s-.15 2.61-.15 3.92q.015 1.965.15 3.9c.05.65.12 1.29.21 1.91.06.31.11.62.19.89.09.26.2.47.38.72.66.94 1.54 1.79 2.39 2.61.86.81 1.76 1.59 2.68 2.34.46.37.92.73 1.39 1.08l.7.5.35.22c.1.05.17.1.28.11.99.1 2.2-.13 3.29-.33l-.21.13c1.4-1.63 2.61-3.51 3.76-5.42 1.14-1.92 2.24-3.89 3.26-5.91.51-1.01 1.02-2.02 1.49-3.05.49-.99.7-2.15.55-3.26-.07-.56-.26-1.07-.45-1.6s-.38-1.05-.59-1.57c-.4-1.04-.86-2.06-1.32-3.06-.93-2.01-1.95-3.97-3.11-5.77-.29-.44-.6-.88-.94-1.24-.17-.18-.35-.34-.51-.44a.43.43 0 0 0-.2-.07c-.06 0-.17.06-.26.08-.84.35-1.74 1.02-2.59 1.61-3.39 2.49-6.73 5.22-10.08 7.86"/><path fill="#e1ac8f" d="M131.21 88.66s10.75-13.58 12.77-12.45c2.01 1.12 5.19 7.53 5.18 9.67-.02 3.14-3.34 8.38-5.01 9.96s-3.68 2.55-6.35 1.94c-2.66-.61-6.59-9.12-6.59-9.12"/><path fill="#c27b55" d="M148.54 85.31c-.26-.67-.52-1.34-.84-1.98q-.45-.96-.96-1.89c-.67-1.24-1.38-2.44-2.12-3.62l-.08-.12-.08.12c-.74 1.1-1.36 2.27-1.97 3.45-.6 1.18-1.14 2.4-1.66 3.64-.49 1.24-1 2.48-1.45 3.74-.46 1.26-.9 2.53-1.28 3.81l.06.03c.55-1.21 1.07-2.44 1.6-3.66l1.56-3.67 1.54-3.67c.51-1.16 1.01-2.35 1.68-3.39.74 1.1 1.39 2.29 1.96 3.51.58 1.24 1.08 2.52 1.52 3.82-.5 1.34-.99 2.67-1.52 3.99l-.81 2.03c-.23.53-.47 1.07-.73 1.56-.47-.48-.91-1.03-1.24-1.65-.39-.73-.64-1.55-.68-2.41.43-1 .84-2.02 1.26-3.03l-.05-.03c-.52.98-1.05 1.95-1.55 2.94l-.02.04v.06c-.03.96.2 1.92.6 2.74.2.41.43.81.69 1.17s.53.71.87 1.02l.25.23.19-.31c.4-.67.69-1.34.99-2.01.29-.68.57-1.36.83-2.05.51-1.38 1.01-2.77 1.47-4.18l.04-.12z"/><path fill="#f0c7b1" d="M139.42 105.09c.29-8.36-.32-24.19.98-36.59 0 0 .9-9.5 0-13.6-2.2-10-6.3-16-15.2-20.8-9.3-5-25.2-4.8-25.2-4.8s-15.9-.2-25.2 4.8c-8.8 4.8-13 10.8-15.2 20.8-.9 4 0 13.6 0 13.6 1.3 12.4.52 25.14.91 34.65.49 15.53 4.95 26.5 10.09 33.1 12.7 15.7 29.4 15.35 29.4 15.35s15.46 1.51 28.16-14.19c8.05-9.99 10.85-20.76 11.26-32.32"/><path fill="#d19271" d="M87.9 137.9s8.6-8.5 21.2-.5c0 0-12.3-3-21.2.5"/><path fill="#c27b55" d="M128.16 137.41c8.06-9.99 10.86-20.76 11.26-32.32.29-8.36-.32-24.19.98-36.59 0 0 .9-9.5 0-13.6-2.2-10-6.3-16-15.2-20.8-9.3-5-25.2-4.8-25.2-4.8s-15.9-.2-25.2 4.8c-8.8 4.8-13 10.8-15.2 20.8-.9 4 0 13.6 0 13.6 1.3 12.4.52 25.14.91 34.65.49 15.53 4.95 26.5 10.09 33.1 12.7 15.7 29.4 15.35 29.4 15.35s15.46 1.51 28.16-14.19m-5.62 4.69c-2.14 1.75-4.41 3.3-6.84 4.57-2.44 1.24-5 2.22-7.64 2.86-.66.18-1.32.32-1.99.43-.66.14-1.34.21-2.01.3-1.32.14-2.74.21-3.95.11h-.15c-2.6-.07-5.41-.57-8.03-1.33-2.64-.77-5.22-1.78-7.63-3.11-4.86-2.58-9.15-6.21-12.64-10.46-3.35-4.3-5.73-9.43-7.31-14.76-1.57-5.35-2.42-10.92-2.68-16.53-.33-5.63-.25-11.32-.34-17.02-.08-5.7-.31-11.42-.91-17.11-.33-2.83-.55-5.64-.65-8.47-.05-1.41-.06-2.82.01-4.22.04-.69.09-1.39.22-2.06.12-.68.3-1.37.45-2.06.69-2.73 1.64-5.39 2.96-7.86 1.36-2.45 3.09-4.69 5.19-6.55 2.09-1.86 4.49-3.41 6.99-4.67 2.51-1.23 5.24-2.02 7.99-2.63 5.52-1.15 11.21-1.55 16.83-1.46 5.62.17 11.28.81 16.68 2.19 2.7.69 5.33 1.6 7.71 2.91 2.43 1.34 4.72 2.89 6.7 4.76 4.02 3.71 6.38 8.86 7.71 14.27.73 2.59.72 5.42.74 8.24-.02 2.83-.18 5.62-.4 8.49-.68 11.42 0 22.8-.28 34.17-.21 5.61-1.03 11.23-2.84 16.53-1.8 5.31-4.6 10.23-8.11 14.54-.84 1.11-1.85 2.07-2.77 3.11-.45.53-1 .96-1.49 1.44-.49.45-.98.94-1.52 1.38"/><path fill="#da7c87" d="M119.9 121.9c-.2-.3-.6-.6-.9-.8-.3-.1-.8-.1-.8.4 0 .3.2.6.5.8-.66 1.22-2.4 1.46-3.8 1.56-1.5.1-2.71.22-4.49-.17-3.42-.92-6.52-1.82-9.62-1.62-2.9.1-5.13.98-7.93 1.78-3.3.9-7.66 2.74-9.96-.66.3-.2.6-.4.8-.7.4-.4 0-1-.5-.9-1 .3-2.3 1.6-2.2 2.7 0 .2.3.4.5.3.4-.3.7-.7 1-1 .9 1.7 2.7 2.5 4.7 2.7 2 .1 3.9-.5 5.9-.9 2.2-.5 4.4-.7 6.6-.8 4.1-.1 8.1.2 12.2.4 2.4.1 5.7.4 7.5-1.5.1.3.2.6.5.8.1.1.3 0 .4-.1.7-.59 0-1.69-.4-2.29"/><path fill="#d19271" d="M105.6 128.4c-3.4.2-6.6.7-10 .5-.3 0-.3.4-.1.4 3.2.7 7 .9 10.2-.2.4-.1.4-.7-.1-.7"/><path fill="#fff" d="M80.2 74.2c7.5 0 13.5 5.8 13.5 13s-6 13-13.5 13-13.5-5.8-13.5-13 6-13 13.5-13"/><path fill="#3b2d00" d="M80.2 81.9c2.9 0 5.3 2.4 5.3 5.3s-2.4 5.3-5.3 5.3-5.3-2.4-5.3-5.3 2.4-5.3 5.3-5.3"/><path fill="#342700" d="M80.2 92.8c-3.1 0-5.6-2.5-5.6-5.5 0-3.1 2.5-5.6 5.5-5.6 3.1 0 5.6 2.5 5.6 5.5.1 3.1-2.4 5.6-5.5 5.6m0-10.6c-2.8 0-5 2.3-5 5.1s2.3 5 5.1 5 5-2.3 5-5.1c-.1-2.8-2.4-5-5.1-5"/><path fill="#433300" d="M80.2 82.7c2.5 0 4.5 2 4.5 4.5s-2 4.5-4.5 4.5-4.5-2-4.5-4.5 2-4.5 4.5-4.5"/><path d="M80.2 84.3c1.6 0 2.9 1.3 2.9 2.9s-1.3 2.9-2.9 2.9-2.9-1.3-2.9-2.9 1.3-2.9 2.9-2.9"/><path fill="#fff" d="M78.9 84.3c.6 0 1 .4 1 1s-.4 1-1 1-1-.4-1-1 .4-1 1-1m3.3 4.6c.2 0 .4.2.4.4s-.2.4-.4.4-.4-.2-.4-.4.2-.4.4-.4"/><path fill="#f0c7b1" d="M80.2 73.7c-7.8 0-14.1 6.1-14.1 13.6s6.3 13.6 14.1 13.6 14.1-6.1 14.1-13.6S88 73.7 80.2 73.7M79 90.6c-6.5-.3-11.9-2.5-12.1-2.9s4.4-3.8 14.1-3.4c9.7.5 11.6 5.2 11.6 5.2-1.6 1-7.2 1.4-13.6 1.1"/><path d="M86 90.8c1.1-.1 2.3-.2 3.4-.3.6-.1 1.1-.2 1.7-.3.6-.2 1.1-.3 1.6-.6-.2-.6-.6-1-.9-1.4l-.6-.6c-.2-.2-.4-.4-.7-.5-.9-.7-2-1.2-3-1.6-2.2-.8-4.5-1.1-6.7-1.2-2.3-.1-4.6.1-6.8.6-1.1.2-2.2.5-3.3.8-1.1.4-2.2.8-3.1 1.4l-.3.3c-.1.1-.2.2-.3.4v.2s0 .1.1.1l.1.1.2.1c.1.1.3.1.4.2.5.3 1.1.5 1.6.7 1.1.4 2.2.7 3.3 1 2.2.5 4.5.9 6.8 1 1.9-.2 4.2-.3 6.5-.4m-16.8-2.3c-.5-.2-1.1-.4-1.6-.6-.1-.1-.2-.1-.4-.2l-.2-.1c0-.1.1-.2.2-.2l.3-.3q1.35-.9 3-1.5c1.1-.4 2.2-.7 3.3-.8 2.2-.4 4.5-.4 6.8-.3 1.1.1 2.2.2 3.4.3.6.1 1.1.2 1.7.3.5.2 1.1.3 1.6.5 1.1.3 2.1.8 3 1.4s1.8 1.4 2.3 2.4c-.5.2-1.1.4-1.6.5-.6.1-1.1.2-1.7.2-1.1.1-2.2.2-3.4.2-2.3.1-4.5 0-6.8-.1-2.2-.1-4.5-.4-6.7-.9-1-.1-2.1-.4-3.2-.8"/><path fill="#d19271" d="M76.9 94.9C88.7 96.3 93.6 91 93.6 91c-8.1 4.6-16.7 3.9-16.7 3.9m7.9-13.1c4.3 1.4 5.9 2.8 5.9 2.8s-1.1-1.4-6.1-3.2-14.6.4-14.6.4 10.2-1.6 14.8 0"/><path fill="#fff" d="M119.8 74.2c7.5 0 13.5 5.8 13.5 13s-6 13-13.5 13-13.5-5.8-13.5-13 6-13 13.5-13"/><path fill="#342700" d="M119.8 82.5c2.6 0 4.7 2.1 4.7 4.7s-2.1 4.7-4.7 4.7-4.7-2.1-4.7-4.7 2.1-4.7 4.7-4.7"/><path fill="#241c00" d="M119.8 92.1c-2.7 0-4.9-2.2-4.9-4.9s2.2-4.9 4.9-4.9 4.9 2.2 4.9 4.9-2.2 4.9-4.9 4.9m0-9.3c-2.4 0-4.4 2-4.4 4.4s2 4.4 4.4 4.4 4.4-2 4.4-4.4-2-4.4-4.4-4.4"/><path fill="#3b2d00" d="M119.8 83.2c2.2 0 4 1.8 4 4s-1.8 4-4 4-4-1.8-4-4 1.8-4 4-4"/><path fill="#433300" d="M119.8 83.8c1.9 0 3.4 1.5 3.4 3.4s-1.5 3.4-3.4 3.4-3.4-1.5-3.4-3.4 1.5-3.4 3.4-3.4"/><path d="M119.8 84.7c1.4 0 2.5 1.1 2.5 2.5s-1.1 2.5-2.5 2.5-2.5-1.1-2.5-2.5 1.1-2.5 2.5-2.5"/><path fill="#fff" d="M118.7 84.7c.5 0 .9.4.9.9s-.4.9-.9.9-.9-.4-.9-.9.4-.9.9-.9m2.9 4q.3 0 .3.3c0 .3-.1.3-.3.3s-.3-.1-.3-.3.1-.3.3-.3"/><path fill="#f0c7b1" d="M119.8 73.7c-7.8 0-14.1 6.1-14.1 13.6s6.3 13.6 14.1 13.6 14.1-6.1 14.1-13.6-6.3-13.6-14.1-13.6m.5 15.6c-6.4.2-11.3.4-13-.4 0 0 1.9-3.6 11.5-3.9 9.6-.4 14.2 2.3 14 2.6s-6.1 1.5-12.5 1.7"/><path d="M132.8 87.3c-.1-.1-.2-.2-.4-.2-2-1-4.2-1.4-6.4-1.8-2.2-.3-4.4-.5-6.6-.5s-4.4.3-6.6.8c-1.1.3-2.1.7-3.1 1.2-.5.2-1 .6-1.4.9-.4.4-.8.7-1.1 1.3.5.3 1.1.4 1.6.5.6.1 1.1.2 1.7.2 1.1.1 2.2.1 3.3.1 2.2 0 4.4-.1 6.6-.1q3.3-.15 6.6-.6c1.1-.2 2.2-.3 3.3-.6.5-.1 1.1-.2 1.6-.4.3-.1.5-.2.8-.3 0 0 .1 0 .1-.1l.1-.1s.1-.1.1-.2c-.1-.1-.2-.1-.2-.1m-1 .4c-.5.1-1.1.2-1.6.3-1.1.2-2.2.3-3.2.5-2.2.3-4.4.4-6.6.5l-6.6.2c-1.1 0-2.2.1-3.3 0-.6 0-1.1 0-1.6-.1s-1.1-.1-1.6-.3c.3-.4.7-.8 1.2-1.1.4-.3.9-.6 1.4-.8 1-.5 2-.8 3.1-1.1 2.1-.5 4.3-.7 6.5-.8s4.4-.1 6.6.2c1.1.1 2.2.4 3.2.7s2.1.7 3 1.2c.1.1.2.1.3.2-.3.3-.5.4-.8.4"/><path fill="#d19271" d="M107.1 90.3s4.8 5.2 16.5 3.9c0-.1-8.5.6-16.5-3.9m6-6.1c4.4-2.2 14.4-2.2 14.4-2.2s-9.7-.7-14.3 1.8c-4.7 2.5-5.5 4-5.5 4s1.4-1.6 5.4-3.6"/><path fill="#2a232b" d="M67.87 76.23s1.96-4.66 6.27-6.5c4.32-1.84 16.59 1.19 15.86 4.07-.73 2.87-4.1 1.64-6.44.58s-7.93-6.39-15.69 1.85"/><path fill="#1b141c" d="M90.03 72.96c-.29-.52-.75-.86-1.2-1.16-.47-.29-.96-.54-1.45-.76-1-.43-2.04-.76-3.09-1.05-2.1-.56-4.25-.98-6.44-1.04-1.09-.01-2.21.05-3.28.38-1.06.38-2.02.95-2.87 1.64-.86.69-1.6 1.52-2.24 2.39-.33.44-.62.9-.89 1.37-.14.24-.26.48-.38.72-.06.12-.12.24-.17.37l-.08.19-.04.09-.02.05c-.01.03-.01.06-.01.08.19-.18.4-.35.61-.55.21-.21.41-.36.62-.55.2-.18.41-.35.62-.51.21-.17.42-.34.64-.49.87-.63 1.8-1.17 2.79-1.56a8.6 8.6 0 0 1 3.08-.63c.53 0 1.05.05 1.57.13.52.09 1.03.24 1.52.42 1 .35 1.93.86 2.87 1.4.47.27.94.56 1.46.78.5.22 1.01.43 1.53.6.52.18 1.05.34 1.61.42.55.09 1.13.12 1.7-.03.28-.07.56-.19.8-.37s.43-.41.58-.66c.14-.25.24-.53.31-.8.03-.15.04-.31.02-.46-.05-.13-.1-.28-.17-.41m-.18.81c-.07.25-.17.49-.3.7-.26.43-.69.72-1.17.82-.49.11-1.01.07-1.53-.02-.51-.1-1.02-.25-1.52-.43s-.99-.39-1.48-.61c-.48-.21-.93-.49-1.4-.77-.93-.56-1.91-1.09-2.95-1.46-1.05-.37-2.17-.57-3.28-.53-1.11.05-2.22.31-3.22.75-1.01.44-1.94 1.04-2.79 1.72-.22.17-.42.34-.62.53-.21.18-.41.36-.6.56-.19.19-.4.38-.56.57-.17.19-.33.4-.53.61 1.02-1.85 2.36-3.63 4.05-4.92.84-.64 1.78-1.18 2.76-1.52 1-.29 2.08-.37 3.15-.39 1.07-.01 2.15.05 3.22.18s2.13.32 3.18.59 2.07.61 3.05 1.06c.49.22.97.47 1.41.78.43.3.85.66 1.08 1.1a1 1 0 0 1 .05.68"/><path fill="#2a232b" d="M132.8 72.8s-2.65-4.3-7.2-5.46-16.21 3.72-15.05 6.45 4.3.99 6.45-.41c2.16-1.41 6.87-7.53 15.8-.58"/><path fill="#1b141c" d="m132.8 72.74-.03-.05-.05-.09-.11-.17c-.07-.12-.15-.23-.23-.34-.16-.22-.32-.44-.49-.65-.34-.43-.7-.84-1.09-1.22-.78-.77-1.63-1.47-2.58-2.02-.95-.56-1.98-.97-3.09-1.18-1.11-.16-2.22-.06-3.3.13-2.16.39-4.22 1.13-6.2 2.01-.99.45-1.97.93-2.89 1.51-.46.29-.91.61-1.32.97-.41.37-.81.77-1.01 1.33-.05.14-.08.29-.08.44s.03.31.09.45c.11.26.25.51.43.74s.41.43.67.57.56.22.85.24c.59.06 1.15-.06 1.68-.23s1.04-.41 1.52-.66c.49-.26.96-.54 1.42-.83.48-.29.9-.66 1.32-.99.84-.68 1.68-1.33 2.62-1.83.46-.25.94-.48 1.44-.64.5-.17 1.01-.29 1.53-.37 1.04-.14 2.11-.1 3.14.15 1.03.24 2.04.62 3 1.11.24.12.47.25.71.38s.47.26.7.41.45.27.69.45c.24.16.48.3.69.45-.01-.01-.01-.05-.03-.07m-.63-.48c-.19-.16-.43-.32-.64-.48-.22-.16-.44-.31-.67-.46s-.46-.3-.7-.43c-.95-.54-1.95-1-3.02-1.28a8.9 8.9 0 0 0-3.3-.25c-1.11.13-2.18.5-3.16 1.03-.98.52-1.86 1.2-2.7 1.89-.42.35-.82.7-1.26.98-.45.3-.9.58-1.37.83-.47.26-.95.49-1.44.66s-1.01.29-1.5.26c-.5-.03-.96-.25-1.29-.63-.16-.19-.3-.41-.41-.65-.1-.21-.1-.45-.03-.69.15-.48.51-.89.89-1.26.39-.37.82-.69 1.27-.98.9-.59 1.86-1.09 2.86-1.51.99-.42 2.02-.78 3.05-1.07 1.04-.29 2.09-.52 3.15-.68 1.06-.15 2.13-.24 3.17-.1 1.02.18 2.04.57 2.96 1.08 1.87 1.02 3.47 2.57 4.76 4.24-.23-.16-.42-.34-.62-.5"/><path fill="#f0c7b1" d="M109.5 107.91c-1.24.49-2.69.36-3.82.07s-2.48.69-2.95 1.13-1.71 1.71-3.93.91-2.15-1.57-3.35-1.86-2.07.66-3.42.29c-1.35-.36-1.97-1.38-1.86-2.8s.82-3.92 1.48-4.96 10.31-4.3 17.37.43c0 0 1.49 2.39 1.46 4.32s-.14 2.14-.98 2.47"/><path fill="#c27b55" d="M91.66 100.69c-.5 1.38-.97 2.79-1.14 4.22-.08.7-.12 1.45.12 2.05l.09.22c.04.07.09.13.13.2s.09.13.15.19c.06.05.1.12.16.16.23.21.53.32.83.39.63.13 1.33.02 2.02-.13l.53-.12.28-.06.15-.03.18-.02c.49-.03.91.14 1.27.31.73.36 1.3.86 1.88 1.29l.21.16c.07.04.12.08.19.12.13.07.27.13.42.17.3.09.63.13.95.12.64-.01 1.28-.21 1.77-.6l.17-.16.21-.2c.14-.13.29-.26.45-.38.31-.24.64-.46 1.01-.64.36-.17.75-.31 1.17-.37a2.4 2.4 0 0 1 1 .07l.29.11c.25.1.61.15.95.17s.69.01 1.04-.03c.68-.08 1.4-.27 1.8-.7.19-.19.27-.52.31-.86s.03-.69-.01-1.05c-.14-1.43-.62-2.84-1.24-4.17.8 1.24 1.38 2.63 1.68 4.11.07.37.1.76.09 1.15-.02.39-.08.82-.37 1.2-.28.35-.66.56-1.03.71s-.75.24-1.14.31c-.38.07-.77.09-1.16.09-.4-.01-.78-.04-1.22-.19l-.22-.08c-.07-.01-.13-.03-.2-.03-.14-.02-.29 0-.44.02-.3.05-.61.17-.91.32-.29.16-.58.34-.85.56-.13.11-.26.22-.39.34l-.19.18-.24.21c-.66.54-1.5.8-2.32.82-.41.01-.83-.05-1.23-.17-.2-.06-.4-.15-.59-.25-.09-.05-.19-.12-.28-.18l-.23-.17c-.59-.45-1.15-.92-1.73-1.23-.29-.15-.59-.26-.84-.25h-.09l-.12.02-.26.05-.55.11c-.74.14-1.54.25-2.35.04-.4-.11-.8-.29-1.11-.6-.3-.31-.55-.64-.66-1.06-.25-.8-.14-1.58 0-2.32.16-.74.39-1.45.66-2.14.29-.68.6-1.35.95-2"/><path fill="#f8d5c3" d="M102.11 103.91c-.52-.52-1.24-.61-1.94-.46-.09.02-.17.04-.25.06-.29-.19-.59-.32-.98-.32-.43 0-.95.19-1.25.52-.67.73-.68 1.78 0 2.5 1.14 1.22 3.69 1.57 4.66-.08.4-.68.33-1.65-.24-2.22"/><path fill="#2a232b" d="M58.02 71.24s1.85 1.66 2.59 3.33c.74 1.66 0 4.62.55 4.99s2.4-4.99 2.4-4.99l1.29-21.45 16.09-14.98 6.66 7.21s17.01.92 25.34.55l7.03-5.18 15.54 13.32.55 20.71 2.4 4.62s.74-5.18 1.11-5.92 2.03-2.59 2.03-2.59 1.48-13.5.74-17.38-5.55-13.69-14.24-20.16-35.69-5.55-40.5-5.18-15.17 3.51-15.17 3.51l.92 1.29-2.59 1.11-.37 1.48s-5.36 3.33-7.4 5.73-3.88 7.03-4.44 10.91-.53 19.07-.53 19.07"/><path fill="#1b141c" d="M58.07 71.22c.89.82 1.77 1.77 2.4 2.86.69 1.12.63 2.47.62 3.7 0 .31-.01.62 0 .93.01.15.02.3.05.44.01.14.12.27.1.26-.06.02.12-.1.17-.22.08-.12.16-.25.23-.38.14-.27.27-.55.4-.83.49-1.14.91-2.31 1.31-3.49l-.01.06 1.15-21.46.01-.15.11-.11L80.66 37.8l.33-.3.3.33 6.65 7.22-.29-.14c4.21.23 8.43.4 12.65.56 4.22.14 8.44.26 12.65.14l-.16.06 7.07-5.12.14-.1.13.11 15.49 13.37.05.04v.07l.64 20.71-.03-.1 2.42 4.61-.49.08c.22-1.54.45-3.08.75-4.62.08-.39.15-.77.28-1.17.16-.46.42-.75.65-1.08.48-.63.98-1.23 1.5-1.82l-.08.17c.4-4.12.74-8.25.84-12.37.01-2.06.12-4.14-.5-6.04-.6-1.93-1.51-3.79-2.5-5.58-2-3.58-4.5-6.89-7.42-9.75-1.46-1.42-3.02-2.82-4.72-3.86-1.67-1.1-3.65-1.71-5.58-2.32-3.95-1.06-8.05-1.62-12.16-2-4.11-.36-8.24-.51-12.38-.52-2.07 0-4.13.02-6.2.1-1.03.04-2.06.09-3.08.16-1 .09-2.01.25-3.02.42-4.04.76-8.05 1.84-12.02 2.98l.22-.63.92 1.3.29.41-.46.19-2.6 1.09.22-.26-.38 1.48-.04.15-.13.08c-1.41.88-2.81 1.82-4.15 2.81-1.32 1.01-2.66 2.04-3.63 3.34-1.92 2.68-3.12 5.89-3.82 9.12-.35 1.62-.4 3.3-.51 4.98q-.135 2.52-.21 5.04c-.1 3.36-.17 6.76-.22 10.08m-.09.04c-.04-3.4-.04-6.74-.01-10.11.02-1.68.05-3.36.1-5.05.08-1.68.12-3.38.45-5.05.32-1.67.81-3.3 1.43-4.88.63-1.57 1.37-3.12 2.39-4.52 1.03-1.42 2.4-2.47 3.72-3.52 1.35-1.03 2.74-1.99 4.17-2.9l-.17.23.36-1.48.04-.18.18-.08 2.58-1.13-.17.6-.93-1.29-.34-.47.55-.17c3.98-1.2 7.98-2.32 12.08-3.15 1.03-.19 2.06-.38 3.13-.47 1.05-.08 2.09-.13 3.12-.17 2.08-.08 4.16-.11 6.24-.11 4.16 0 8.32.14 12.47.5 4.15.37 8.3.92 12.35 2.04 2 .65 4.03 1.28 5.84 2.47 1.82 1.13 3.36 2.54 4.87 4.01 2.98 2.95 5.51 6.34 7.53 10.01 1 1.84 1.9 3.74 2.51 5.78.32 1.01.45 2.12.48 3.16.02 1.05.02 2.09-.02 3.13-.16 4.16-.54 8.29-.99 12.42l-.01.1-.07.07c-.51.57-1.02 1.16-1.49 1.76-.22.3-.48.62-.57.9-.11.34-.19.73-.27 1.1-.31 1.51-.55 3.05-.78 4.58l-.12.8-.37-.72-2.39-4.63-.03-.05v-.05l-.47-20.72.05.11-15.58-13.27.28.01-6.99 5.23-.07.05h-.09c-4.24.19-8.47.13-12.7.05s-8.45-.26-12.68-.46l-.17-.01-.12-.13-6.67-7.21.63.02-16.13 14.98.12-.25-1.45 21.44v.03l-.01.03c-.43 1.18-.88 2.35-1.41 3.49-.13.29-.27.57-.43.85-.08.14-.16.28-.26.41-.05.07-.1.13-.17.2-.06.05-.16.16-.36.13-.29-.15-.29-.36-.33-.52-.03-.17-.04-.33-.04-.49-.01-.32.01-.63.02-.95.03-1.23.12-2.53-.51-3.6-.59-1.08-1.41-2.01-2.32-2.9"/><path fill="#fff" d="m92.2 97.2-22.21.64c-.67.02-1.24-.5-1.28-1.16l-.45-8.42c-.04-.69.49-1.25 1.18-1.26l23.84-.39c.65-.01 1.17.52 1.17 1.19l.01 7.06c0 1.25-1.01 2.3-2.26 2.34m17-.47 20.34-.58c.58-.02 1.09-.53 1.14-1.15l.57-7.87c.05-.64-.4-1.15-.99-1.14l-21.85.35c-.63.01-1.15.55-1.17 1.21l-.17 6.97c-.04 1.26.92 2.25 2.13 2.21" opacity=".45"/><path fill="#939393" d="M95.67 92.08c0 1.23-.32 2.24-.71 2.25s-.71-.98-.71-2.22.32-2.26.71-2.27c.4 0 .72 1 .71 2.24m10.32-.23c-.03 1.22.26 2.2.64 2.19s.71-1 .75-2.22c.03-1.22-.26-2.22-.64-2.21-.39 0-.73 1.01-.75 2.24"/><path fill="#26120b" d="m132.87 85.59-2.48.04-22.04.36c-.76.01-1.4.67-1.42 1.47l-.03 1.39c-1.95-.03-4.03-.54-5.99-.51-2.08.04-4.02.64-6.09.74v-1.41c0-.81-.64-1.46-1.43-1.45l-24.07.39-2.87.05.11 1.91 1.35-.02.45 8.25c.04.8.74 1.44 1.56 1.41l22.5-.65c1.33-.04 2.41-1.16 2.41-2.51v-4.69c2.07-.1 4.01-.7 6.08-.75 1.95-.04 4.03.47 5.98.49l-.11 4.63c-.03 1.33.99 2.38 2.27 2.34l20.6-.6c.71-.02 1.33-.65 1.38-1.4l.56-7.69 1.16-.02zM92.4 96.84l-22.53.64a.75.75 0 0 1-.77-.7l-.45-8.63c-.02-.41.3-.76.71-.76l24.03-.41c.39-.01.71.32.71.72l.01 7.37c0 .94-.77 1.74-1.71 1.77m37.96-1.75c-.03.37-.33.68-.69.69l-20.62.58c-.91.03-1.63-.72-1.61-1.66l.18-7.26c.01-.4.33-.72.7-.73l22.01-.37c.36-.01.63.3.6.69z"/></svg>