<svg xmlns="http://www.w3.org/2000/svg" width="800" height="800" fill="none" viewBox="0 0 24 24"><path fill="#000" fill-rule="evenodd" d="M6.205 3h11.59c1.114 0 1.519.116 1.926.334s.727.538.945.945S21 5.09 21 6.205v7.51l-4.391-4.053a1.5 1.5 0 0 0-2.265.27l-3.13 4.695-2.303-1.48a1.5 1.5 0 0 0-1.96.298L3.005 18.15A13 13 0 0 1 3 17.795V6.205c0-1.115.116-1.519.334-1.926s.538-.727.945-.945S5.09 3 6.205 3m9.477 8.53L21 16.437v1.357c0 1.114-.116 1.519-.334 1.926a2.27 2.27 0 0 1-.945.945c-.407.218-.811.334-1.926.334H6.205c-1.115 0-1.519-.116-1.926-.334a2.3 2.3 0 0 1-.485-.345L8.2 15.067l2.346 1.508a1.5 1.5 0 0 0 2.059-.43zM7.988 6C6.878 6 6 6.832 6 7.988S6.879 10 7.988 10C9.121 10 10 9.145 10 7.988 10 6.832 9.121 6 7.988 6" clip-rule="evenodd"/></svg>