<svg xmlns="http://www.w3.org/2000/svg" version="1.1" viewBox="-5.0 -10.0 110.0 135.0">
 <path d="m33.969 30.656h32.062c2.0938 0 3.7812-1.6875 3.7812-3.7812v-3.5c0-2.0938-1.6875-3.7812-3.7812-3.7812h-32.062c-2.0938 0-3.7812 1.6875-3.7812 3.7812v3.5c0 2.0938 1.6875 3.7812 3.7812 3.7812zm-2.2188-7.2812c0-1.25 0.96875-2.2188 2.2188-2.2188h32.062c1.2188 0 2.2188 1 2.2188 2.2188v3.5c0 1.25-1 2.2188-2.2188 2.2188h-32.062c-1.25 0-2.2188-0.96875-2.2188-2.2188zm-1.5938 15.344c0-0.4375 0.34375-0.78125 0.78125-0.78125h38.094c0.4375 0 0.78125 0.34375 0.78125 0.78125s-0.34375 0.78125-0.78125 0.78125h-38.094c-0.4375 0-0.78125-0.34375-0.78125-0.78125zm30.094 9.625h-29.312c-0.4375 0-0.78125-0.34375-0.78125-0.78125s0.34375-0.78125 0.78125-0.78125h29.312c0.4375 0 0.78125 0.34375 0.78125 0.78125s-0.34375 0.78125-0.78125 0.78125zm29.469-11.375c-2.1875-2.1875-6.0625-2.1875-8.25 0l-4.875 4.875v-24.906c0-3.75-3.0625-6.7812-6.8125-6.7812h-49.312c-3.75 0-6.8125 3.0312-6.8125 6.7812v2.2812h-2.2188c-1.5938 0-2.8438 1.25-2.8438 2.8438s1.2812 2.875 2.8438 2.875h2.2188v8.25h-2.2188c-1.5938 0-2.8438 1.25-2.8438 2.8438s1.2812 2.875 2.8438 2.875h2.2188v8.25h-2.2188c-1.5938 0-2.8438 1.25-2.8438 2.8438s1.2812 2.875 2.8438 2.875h2.2188v8.25h-2.2188c-1.5938 0-2.8438 1.25-2.8438 2.8438s1.2812 2.875 2.8438 2.875h2.2188v8.25h-2.2188c-1.5938 0-2.8438 1.25-2.8438 2.8438s1.2812 2.875 2.8438 2.875h2.2188v2.25c0 3.75 3.0625 6.7812 6.8125 6.7812h49.312c3.75 0 6.8125-3.0312 6.8125-6.7812v-24.75l13.125-13.125c2.25-2.25 2.25-5.9375 0-8.2188zm-10.844 4.8125 2.4375 2.4688-6.2812 6.2812-23.844 23.875h-0.03125l-2.4375-2.4688zm-30.969 31.562 5.4375 5.4375-9.1875 3.7188zm-36.469-49.969c-0.71875 0-1.2812-0.59375-1.2812-1.3125s0.5625-1.2812 1.2812-1.2812h5.5c0.71875 0 1.3125 0.59375 1.3125 1.2812s-0.59375 1.3125-1.3125 1.3125zm0 13.969c-0.71875 0-1.2812-0.59375-1.2812-1.3125s0.5625-1.2812 1.2812-1.2812h5.5c0.71875 0 1.3125 0.59375 1.3125 1.2812s-0.59375 1.3125-1.3125 1.3125zm0 13.969c-0.71875 0-1.2812-0.59375-1.2812-1.3125s0.5625-1.2812 1.2812-1.2812h5.5c0.71875 0 1.3125 0.5625 1.3125 1.2812s-0.59375 1.3125-1.3125 1.3125zm0 13.969c-0.71875 0-1.2812-0.59375-1.2812-1.3125s0.5625-1.2812 1.2812-1.2812h5.5c0.71875 0 1.3125 0.5625 1.3125 1.2812s-0.59375 1.3125-1.3125 1.3125zm0 13.969c-0.71875 0-1.2812-0.59375-1.2812-1.3125s0.5625-1.2812 1.2812-1.2812h5.5c0.71875 0 1.3125 0.5625 1.3125 1.2812s-0.59375 1.3125-1.3125 1.3125zm3.7812 3.8125v-2.25h1.7188c1.5938 0 2.875-1.3125 2.875-2.875s-1.2812-2.8438-2.875-2.8438h-1.7188v-8.25h1.7188c1.5938 0 2.875-1.2812 2.875-2.875s-1.2812-2.8438-2.875-2.8438h-1.7188v-8.25h1.7188c1.5938 0 2.875-1.2812 2.875-2.875s-1.2812-2.8438-2.875-2.8438h-1.7188v-8.25h1.7188c1.5938 0 2.875-1.2812 2.875-2.875s-1.2812-2.8438-2.875-2.8438h-1.7188v-8.25h1.7188c1.5938 0 2.875-1.2812 2.875-2.875s-1.2812-2.8438-2.875-2.8438h-1.7188v-2.2812c0-2.875 2.3438-5.2188 5.25-5.2188h2.9062v76.562h-2.9062c-2.9062 0-5.25-2.3438-5.25-5.2188zm59.812 0c0 2.875-2.375 5.2188-5.25 5.2188h-44.844v-76.562h44.844c2.875 0 5.25 2.3438 5.25 5.2188v26.469l-27.906 27.938h-0.0625s-0.03125 0.09375-0.03125 0.125c-0.0625 0.0625-0.09375 0.125-0.125 0.1875l-0.0625 0.1875v0.09375l-4.8125 11.719c-0.125 0.28125-0.0625 0.59375 0.15625 0.84375 0.15625 0.125 0.34375 0.21875 0.5625 0.21875 0.09375 0 0.1875-0.03125 0.28125-0.0625l12-4.875s0.15625-0.09375 0.25-0.15625l19.75-19.75zm1.5625-26.969-1.5625 1.5625-20.281 20.312-2.4688-2.4688 30.156-30.156 2.4688 2.4688zm12-12-2.5938 2.625-6.0312-6.0312 2.625-2.625c1.5938-1.5938 4.4062-1.5938 6 0 1.6875 1.6562 1.6875 4.375 0 6.0312z"/>
<text x="0.0" y="117.5" font-size="5.0" font-weight="bold" font-family="Arbeit Regular, Helvetica, Arial-Unicode, Arial, Sans-serif" fill="#000000">Created by SEFEICN</text><text x="0.0" y="122.5" font-size="5.0" font-weight="bold" font-family="Arbeit Regular, Helvetica, Arial-Unicode, Arial, Sans-serif" fill="#000000">from Noun Project</text></svg>