<svg xmlns="http://www.w3.org/2000/svg" viewBox="-5 -10 110 135"><path d="M33.969 30.656h32.062a3.774 3.774 0 0 0 3.781-3.781v-3.5a3.774 3.774 0 0 0-3.781-3.781H33.969a3.774 3.774 0 0 0-3.781 3.78v3.5a3.774 3.774 0 0 0 3.781 3.782m-2.219-7.281c0-1.25.969-2.219 2.219-2.219h32.062c1.219 0 2.219 1 2.219 2.219v3.5c0 1.25-1 2.219-2.219 2.219H33.969a2.19 2.19 0 0 1-2.219-2.22zm-1.594 15.344c0-.438.344-.781.782-.781h38.094c.437 0 .78.343.78.78s-.343.782-.78.782H30.938a.774.774 0 0 1-.782-.781m30.094 9.625H30.938c-.437 0-.78-.344-.78-.781s.343-.782.78-.782H60.25c.438 0 .782.344.782.782s-.344.78-.782.78m29.47-11.375c-2.188-2.188-6.063-2.188-8.25 0l-4.876 4.875V16.938c0-3.75-3.062-6.781-6.812-6.781H20.47c-3.75 0-6.813 3.03-6.813 6.78v2.282H11.44c-1.594 0-2.844 1.25-2.844 2.844s1.281 2.875 2.844 2.875h2.218v8.25H11.44c-1.594 0-2.844 1.25-2.844 2.844s1.281 2.875 2.844 2.875h2.218v8.25H11.44c-1.594 0-2.844 1.25-2.844 2.843s1.281 2.875 2.844 2.875h2.218v8.25H11.44c-1.594 0-2.844 1.25-2.844 2.844s1.281 2.875 2.844 2.875h2.218v8.25H11.44c-1.594 0-2.844 1.25-2.844 2.844s1.281 2.875 2.844 2.875h2.218v2.25c0 3.75 3.063 6.781 6.813 6.781h49.312c3.75 0 6.812-3.031 6.812-6.781v-24.75L89.72 45.188c2.25-2.25 2.25-5.937 0-8.219zM78.874 41.78l2.438 2.47-6.281 6.28-23.844 23.875h-.032l-2.437-2.469zM47.906 73.343l5.438 5.438-9.188 3.719zM11.437 23.374c-.718 0-1.28-.593-1.28-1.312s.562-1.281 1.28-1.281h5.5c.72 0 1.313.593 1.313 1.28s-.594 1.313-1.313 1.313zm0 13.97c-.718 0-1.28-.594-1.28-1.313s.562-1.281 1.28-1.281h5.5c.72 0 1.313.593 1.313 1.28s-.594 1.313-1.313 1.313zm0 13.968c-.718 0-1.28-.593-1.28-1.312s.562-1.281 1.28-1.281h5.5c.72 0 1.313.562 1.313 1.28s-.594 1.313-1.313 1.313zm0 13.97c-.718 0-1.28-.594-1.28-1.313s.562-1.281 1.28-1.281h5.5c.72 0 1.313.562 1.313 1.28s-.594 1.313-1.313 1.313zm0 13.968c-.718 0-1.28-.593-1.28-1.312s.562-1.281 1.28-1.281h5.5c.72 0 1.313.562 1.313 1.28s-.594 1.313-1.313 1.313zm3.782 3.813v-2.25h1.718c1.594 0 2.875-1.313 2.875-2.875s-1.28-2.844-2.875-2.844H15.22v-8.25h1.718c1.594 0 2.875-1.281 2.875-2.875s-1.28-2.844-2.875-2.844H15.22v-8.25h1.718c1.594 0 2.875-1.281 2.875-2.875s-1.28-2.844-2.875-2.844H15.22v-8.25h1.718c1.594 0 2.875-1.28 2.875-2.875s-1.28-2.843-2.875-2.843H15.22v-8.25h1.718c1.594 0 2.875-1.282 2.875-2.875s-1.28-2.844-2.875-2.844H15.22v-2.281c0-2.875 2.343-5.22 5.25-5.22h2.906v76.563H20.47c-2.907 0-5.25-2.344-5.25-5.219zm59.812 0c0 2.875-2.375 5.219-5.25 5.219H24.937V11.72H69.78c2.875 0 5.25 2.343 5.25 5.218v26.47L47.125 71.344h-.063s-.031.094-.031.125a.6.6 0 0 0-.125.188l-.063.187v.094l-4.812 11.72c-.125.28-.063.593.156.843a.9.9 0 0 0 .563.219c.093 0 .187-.032.28-.063l12-4.875s.157-.094.25-.156l19.75-19.75zm1.562-26.97-1.562 1.563L54.75 77.968 52.28 75.5l30.157-30.155 2.469 2.468zm12-12L86 46.72l-6.03-6.031 2.624-2.625c1.594-1.594 4.406-1.594 6 0a4.225 4.225 0 0 1 0 6.03"/><text y="117.5" font-family="Arbeit Regular, Helvetica, Arial-Unicode, Arial, Sans-serif" font-size="5" font-weight="bold">Created by SEFEICN</text><text y="122.5" font-family="Arbeit Regular, Helvetica, Arial-Unicode, Arial, Sans-serif" font-size="5" font-weight="bold">from Noun Project</text></svg>